<?xml version="1.0" encoding="UTF-8"?>
<svg version="1.1" xmlns="http://www.w3.org/2000/svg" width="180" height="180">
<path d="M0 0 C3.1089236 2.12530936 5.35026402 4.76262218 7.6640625 7.7109375 C10.82883072 11.54197272 16.03178375 11.08221639 20.6640625 11.58007812 C25.85912843 12.20287843 25.85912843 12.20287843 28.07421875 14.41796875 C28.73194975 20.9952787 27.25419068 26.5614538 23.26171875 31.79296875 C18.3891791 35.41256963 13.2176467 35.69685313 7.34375 35.9765625 C4.62928778 36.50450438 3.67891531 37.18717747 2.07421875 39.41796875 C2.24472321 43.59532811 3.28178974 47.08049512 4.6015625 51.02734375 C6.18962132 56.29308855 6.57334202 61.12818683 6.51171875 66.60546875 C6.50688477 67.97566162 6.50688477 67.97566162 6.50195312 69.37353516 C6.35983123 76.35588593 5.04886415 82.16928191 2.96875 88.8359375 C1.19076346 95.9556478 0.91995419 104.35968732 3.07421875 111.41796875 C3.83734375 111.50046875 4.60046875 111.58296875 5.38671875 111.66796875 C8.07421875 112.41796875 8.07421875 112.41796875 9.94921875 114.04296875 C11.07421875 116.41796875 11.07421875 116.41796875 10.07421875 123.41796875 C1.49421875 123.41796875 -7.08578125 123.41796875 -15.92578125 123.41796875 C-16.58578125 121.76796875 -17.24578125 120.11796875 -17.92578125 118.41796875 C-18.62703125 117.81984375 -19.32828125 117.22171875 -20.05078125 116.60546875 C-22.26710078 114.01976263 -22.48318227 112.32014148 -22.33203125 108.95703125 C-21.60978253 104.44297673 -20.13960449 100.12843815 -18.82421875 95.7578125 C-17.02268326 89.06080015 -17.88889522 84.03784835 -19.92578125 77.41796875 C-19.92578125 76.09796875 -19.92578125 74.77796875 -19.92578125 73.41796875 C-19.00345703 73.07185547 -19.00345703 73.07185547 -18.0625 72.71875 C-12.78528607 70.63722409 -12.78528607 70.63722409 -8.86328125 66.66796875 C-8.55390625 65.92546875 -8.24453125 65.18296875 -7.92578125 64.41796875 C-8.70953125 64.19109375 -9.49328125 63.96421875 -10.30078125 63.73046875 C-12.92578125 62.41796875 -12.92578125 62.41796875 -13.80078125 60.04296875 C-15.09297146 57.02785827 -15.67422118 56.82214477 -18.48828125 55.41796875 C-21.92578125 53.41796875 -21.92578125 53.41796875 -22.640625 50.79296875 C-22.73472656 50.00921875 -22.82882813 49.22546875 -22.92578125 48.41796875 C-24.22509104 49.97411884 -25.51492263 51.53818555 -26.80078125 53.10546875 C-27.52007812 53.97558594 -28.239375 54.84570312 -28.98046875 55.7421875 C-32.13551745 60.08196333 -33.10480353 63.54145755 -33.30078125 68.85546875 C-33.68566387 73.95516345 -34.57289337 76.57200912 -37.92578125 80.41796875 C-40.92578125 82.41796875 -40.92578125 82.41796875 -43.92578125 82.41796875 C-43.92578125 83.07796875 -43.92578125 83.73796875 -43.92578125 84.41796875 C-45.13638959 85.50516556 -46.39568669 86.53851499 -47.67578125 87.54296875 C-52.6951361 91.78943179 -54.87964049 96.27954646 -56.92578125 102.41796875 C-57.32875878 108.46263165 -56.58027609 112.00279929 -53.92578125 117.41796875 C-53.59578125 118.40796875 -53.26578125 119.39796875 -52.92578125 120.41796875 C-50.42130609 121.63666804 -50.42130609 121.63666804 -47.92578125 122.41796875 C-48.25578125 123.07796875 -48.58578125 123.73796875 -48.92578125 124.41796875 C-58.97703918 124.77694225 -66.15479126 122.12698387 -74.92578125 117.41796875 C-74.92578125 116.75796875 -74.92578125 116.09796875 -74.92578125 115.41796875 C-75.58578125 115.41796875 -76.24578125 115.41796875 -76.92578125 115.41796875 C-76.92578125 114.75796875 -76.92578125 114.09796875 -76.92578125 113.41796875 C-77.58578125 113.41796875 -78.24578125 113.41796875 -78.92578125 113.41796875 C-78.92578125 112.75796875 -78.92578125 112.09796875 -78.92578125 111.41796875 C-79.58578125 111.41796875 -80.24578125 111.41796875 -80.92578125 111.41796875 C-81.91604655 109.7160449 -82.89251331 108.00608864 -83.86328125 106.29296875 C-84.68119141 104.86597656 -84.68119141 104.86597656 -85.515625 103.41015625 C-88.90640625 96.21531294 -89.04595489 87.27895653 -86.67578125 79.73046875 C-85.17062891 75.6831213 -83.19035933 72.08814702 -80.92578125 68.41796875 C-80.26578125 68.41796875 -79.60578125 68.41796875 -78.92578125 68.41796875 C-78.92578125 67.75796875 -78.92578125 67.09796875 -78.92578125 66.41796875 C-78.26578125 66.41796875 -77.60578125 66.41796875 -76.92578125 66.41796875 C-76.92578125 65.75796875 -76.92578125 65.09796875 -76.92578125 64.41796875 C-73.46078125 63.42796875 -73.46078125 63.42796875 -69.92578125 62.41796875 C-68.93578125 63.40796875 -67.94578125 64.39796875 -66.92578125 65.41796875 C-67.50328125 66.42859375 -68.08078125 67.43921875 -68.67578125 68.48046875 C-69.03800781 69.11597656 -69.40023437 69.75148438 -69.7734375 70.40625 C-70.52562202 71.71938569 -71.28320418 73.0294484 -72.046875 74.3359375 C-75.86136661 80.88903847 -76.55137441 85.92127742 -75.92578125 93.41796875 C-75.16361113 96.00137097 -74.20102435 98.02688794 -72.92578125 100.41796875 C-72.80203125 99.66515625 -72.67828125 98.91234375 -72.55078125 98.13671875 C-70.44977249 87.31652364 -66.04402417 77.59533313 -59.92578125 68.41796875 C-59.26578125 68.41796875 -58.60578125 68.41796875 -57.92578125 68.41796875 C-57.69375 67.70125 -57.46171875 66.98453125 -57.22265625 66.24609375 C-55.68261577 62.88769221 -53.73805859 60.82341981 -51.17578125 58.16796875 C-45.26654066 51.81659792 -34.92578125 40.70183114 -34.92578125 31.41796875 C-35.91578125 30.92296875 -35.91578125 30.92296875 -36.92578125 30.41796875 C-36.92578125 29.75796875 -36.92578125 29.09796875 -36.92578125 28.41796875 C-37.58578125 28.41796875 -38.24578125 28.41796875 -38.92578125 28.41796875 C-39.81943744 19.08422632 -37.12732139 12.5075537 -31.61328125 5.04296875 C-23.14804831 -3.22539831 -10.64286297 -5.29277027 0 0 Z M-11.92578125 19.41796875 C-12.25578125 23.37796875 -12.58578125 27.33796875 -12.92578125 31.41796875 C-10.68253289 29.60603869 -10.68253289 29.60603869 -10.73046875 27.03515625 C-10.75367187 26.13023438 -10.776875 25.2253125 -10.80078125 24.29296875 C-10.81882812 23.38289063 -10.836875 22.4728125 -10.85546875 21.53515625 C-10.87867187 20.83648437 -10.901875 20.1378125 -10.92578125 19.41796875 C-11.25578125 19.41796875 -11.58578125 19.41796875 -11.92578125 19.41796875 Z M-13.92578125 31.41796875 C-14.58578125 32.73796875 -15.24578125 34.05796875 -15.92578125 35.41796875 C-14.93578125 35.08796875 -13.94578125 34.75796875 -12.92578125 34.41796875 C-13.25578125 33.42796875 -13.58578125 32.43796875 -13.92578125 31.41796875 Z M-32.92578125 33.41796875 C-32.59578125 34.07796875 -32.26578125 34.73796875 -31.92578125 35.41796875 C-30.93578125 35.08796875 -29.94578125 34.75796875 -28.92578125 34.41796875 C-30.24578125 34.08796875 -31.56578125 33.75796875 -32.92578125 33.41796875 Z M-28.92578125 35.41796875 C-27.11385119 37.66121711 -27.11385119 37.66121711 -24.54296875 37.61328125 C-23.63804688 37.59007812 -22.733125 37.566875 -21.80078125 37.54296875 C-20.89070313 37.52492187 -19.980625 37.506875 -19.04296875 37.48828125 C-18.34429687 37.46507812 -17.645625 37.441875 -16.92578125 37.41796875 C-16.59578125 36.75796875 -16.26578125 36.09796875 -15.92578125 35.41796875 C-20.21578125 35.41796875 -24.50578125 35.41796875 -28.92578125 35.41796875 Z " fill="#7685F4" transform="translate(114.92578125,28.58203125)"/>
<path d="M0 0 C2.475 0.495 2.475 0.495 5 1 C5 1.66 5 2.32 5 3 C5.66 3 6.32 3 7 3 C8.80463107 6.60926214 8.37087486 11.05824627 8.51757812 15.05859375 C8.70467638 18.89234292 9.11219177 21.66304438 11 25 C10.625 27.75 10.625 27.75 10 30 C8.68 29.67 7.36 29.34 6 29 C5.9071875 27.824375 5.9071875 27.824375 5.8125 26.625 C5.544375 25.75875 5.27625 24.8925 5 24 C2.52363988 22.62533375 2.52363988 22.62533375 0 22 C0.33 21.38125 0.66 20.7625 1 20.125 C2.38749371 15.78908215 2.52100717 11.52050336 2 7 C1.34 6.01 0.68 5.02 0 4 C0 2.68 0 1.36 0 0 Z " fill="#7986F0" transform="translate(80,123)"/>
</svg>
